<svg id="visual" viewBox="0 0 900 600" width="900" height="600" xmlns="http://www.w3.org/2000/svg" xmlns:xlink="http://www.w3.org/1999/xlink" version="1.1"><rect x="0" y="0" width="900" height="600" fill="#daf3f1"></rect><g fill="#70d8a4"><circle r="52" cx="396" cy="89"></circle><circle r="17" cx="801" cy="101"></circle><circle r="26" cx="246" cy="286"></circle><circle r="34" cx="520" cy="286"></circle><circle r="19" cx="140" cy="181"></circle><circle r="19" cx="794" cy="528"></circle><circle r="39" cx="43" cy="84"></circle><circle r="42" cx="363" cy="528"></circle><circle r="40" cx="117" cy="336"></circle><circle r="26" cx="595" cy="11"></circle><circle r="29" cx="11" cy="350"></circle><circle r="31" cx="227" cy="97"></circle><circle r="26" cx="847" cy="423"></circle><circle r="44" cx="748" cy="226"></circle><circle r="43" cx="161" cy="558"></circle><circle r="21" cx="337" cy="359"></circle><circle r="31" cx="495" cy="567"></circle><circle r="43" cx="494" cy="146"></circle></g></svg>